<mxfile host="app.diagrams.net" modified="2021-03-04T23:46:38.871Z" agent="5.0 (Windows NT 10.0; Win64; x64) AppleWebKit/537.36 (KHTML, like Gecko) Chrome/85.0.4183.102 Safari/537.36" etag="HjpydTBI6oJAjjnq4WN-" version="14.4.4" type="github" pages="4">
  <diagram name="Page-1" id="42789a77-a242-8287-6e28-9cd8cfd52e62">
    <mxGraphModel dx="1422" dy="794" grid="1" gridSize="10" guides="1" tooltips="1" connect="1" arrows="1" fold="1" page="1" pageScale="1" pageWidth="1100" pageHeight="850" background="#ffffff" math="0" shadow="0">
      <root>
        <mxCell id="0" />
        <mxCell id="1" parent="0" />
        <mxCell id="JXB7LyKvJ_EY9b8inj_L-9" style="edgeStyle=orthogonalEdgeStyle;rounded=0;orthogonalLoop=1;jettySize=auto;html=1;exitX=1;exitY=0.5;exitDx=0;exitDy=0;entryX=0;entryY=0.75;entryDx=0;entryDy=0;" edge="1" parent="1" source="JXB7LyKvJ_EY9b8inj_L-1" target="JXB7LyKvJ_EY9b8inj_L-2">
          <mxGeometry relative="1" as="geometry">
            <Array as="points">
              <mxPoint x="255" y="310" />
              <mxPoint x="255" y="215" />
            </Array>
          </mxGeometry>
        </mxCell>
        <mxCell id="JXB7LyKvJ_EY9b8inj_L-10" style="edgeStyle=orthogonalEdgeStyle;rounded=0;orthogonalLoop=1;jettySize=auto;html=1;" edge="1" parent="1" source="JXB7LyKvJ_EY9b8inj_L-1" target="JXB7LyKvJ_EY9b8inj_L-3">
          <mxGeometry relative="1" as="geometry">
            <Array as="points">
              <mxPoint x="260" y="310" />
              <mxPoint x="260" y="310" />
            </Array>
          </mxGeometry>
        </mxCell>
        <mxCell id="JXB7LyKvJ_EY9b8inj_L-11" style="edgeStyle=orthogonalEdgeStyle;rounded=0;orthogonalLoop=1;jettySize=auto;html=1;exitX=1;exitY=0.5;exitDx=0;exitDy=0;entryX=0;entryY=0.5;entryDx=0;entryDy=0;" edge="1" parent="1" source="JXB7LyKvJ_EY9b8inj_L-1" target="JXB7LyKvJ_EY9b8inj_L-4">
          <mxGeometry relative="1" as="geometry" />
        </mxCell>
        <mxCell id="JXB7LyKvJ_EY9b8inj_L-1" value="Reliability" style="rounded=1;whiteSpace=wrap;html=1;" vertex="1" parent="1">
          <mxGeometry x="100" y="280" width="120" height="60" as="geometry" />
        </mxCell>
        <mxCell id="JXB7LyKvJ_EY9b8inj_L-7" style="edgeStyle=orthogonalEdgeStyle;rounded=0;orthogonalLoop=1;jettySize=auto;html=1;entryX=0;entryY=0.5;entryDx=0;entryDy=0;" edge="1" parent="1" source="JXB7LyKvJ_EY9b8inj_L-2" target="JXB7LyKvJ_EY9b8inj_L-6">
          <mxGeometry relative="1" as="geometry" />
        </mxCell>
        <mxCell id="JXB7LyKvJ_EY9b8inj_L-2" value="Maturity" style="rounded=1;whiteSpace=wrap;html=1;" vertex="1" parent="1">
          <mxGeometry x="290" y="170" width="120" height="60" as="geometry" />
        </mxCell>
        <mxCell id="JXB7LyKvJ_EY9b8inj_L-12" style="edgeStyle=orthogonalEdgeStyle;rounded=0;orthogonalLoop=1;jettySize=auto;html=1;exitX=1;exitY=0.5;exitDx=0;exitDy=0;" edge="1" parent="1" source="JXB7LyKvJ_EY9b8inj_L-3">
          <mxGeometry relative="1" as="geometry">
            <mxPoint x="500" y="310" as="targetPoint" />
          </mxGeometry>
        </mxCell>
        <mxCell id="JXB7LyKvJ_EY9b8inj_L-3" value="Recoverability&amp;nbsp;" style="rounded=1;whiteSpace=wrap;html=1;" vertex="1" parent="1">
          <mxGeometry x="290" y="280" width="120" height="60" as="geometry" />
        </mxCell>
        <mxCell id="JXB7LyKvJ_EY9b8inj_L-13" style="edgeStyle=orthogonalEdgeStyle;rounded=0;orthogonalLoop=1;jettySize=auto;html=1;entryX=0;entryY=0.5;entryDx=0;entryDy=0;" edge="1" parent="1" source="JXB7LyKvJ_EY9b8inj_L-4" target="JXB7LyKvJ_EY9b8inj_L-5">
          <mxGeometry relative="1" as="geometry" />
        </mxCell>
        <mxCell id="JXB7LyKvJ_EY9b8inj_L-4" value="Fault Tolerance" style="rounded=1;whiteSpace=wrap;html=1;" vertex="1" parent="1">
          <mxGeometry x="290" y="390" width="120" height="60" as="geometry" />
        </mxCell>
        <mxCell id="JXB7LyKvJ_EY9b8inj_L-5" value="Number of known anomolies" style="rounded=1;whiteSpace=wrap;html=1;" vertex="1" parent="1">
          <mxGeometry x="510" y="390" width="120" height="60" as="geometry" />
        </mxCell>
        <mxCell id="JXB7LyKvJ_EY9b8inj_L-6" value="Number of error reports" style="rounded=1;whiteSpace=wrap;html=1;" vertex="1" parent="1">
          <mxGeometry x="510" y="170" width="120" height="60" as="geometry" />
        </mxCell>
        <mxCell id="JXB7LyKvJ_EY9b8inj_L-8" value="Average downtime after error" style="rounded=1;whiteSpace=wrap;html=1;" vertex="1" parent="1">
          <mxGeometry x="500" y="270" width="120" height="60" as="geometry" />
        </mxCell>
      </root>
    </mxGraphModel>
  </diagram>
  <diagram id="FcvF6qEiQwlLtSdHjs9_" name="Page-2">
    <mxGraphModel dx="1422" dy="794" grid="1" gridSize="10" guides="1" tooltips="1" connect="1" arrows="1" fold="1" page="1" pageScale="1" pageWidth="1100" pageHeight="850" math="0" shadow="0">
      <root>
        <mxCell id="vxC3MntsO-3d9teD3gYg-0" />
        <mxCell id="vxC3MntsO-3d9teD3gYg-1" parent="vxC3MntsO-3d9teD3gYg-0" />
        <mxCell id="el4g_GagCXxy3RaPVW6V-0" style="edgeStyle=orthogonalEdgeStyle;rounded=0;orthogonalLoop=1;jettySize=auto;html=1;exitX=1;exitY=0.5;exitDx=0;exitDy=0;entryX=0;entryY=0.75;entryDx=0;entryDy=0;" edge="1" source="el4g_GagCXxy3RaPVW6V-3" target="el4g_GagCXxy3RaPVW6V-5" parent="vxC3MntsO-3d9teD3gYg-1">
          <mxGeometry relative="1" as="geometry">
            <Array as="points">
              <mxPoint x="350" y="390" />
              <mxPoint x="350" y="295" />
            </Array>
          </mxGeometry>
        </mxCell>
        <mxCell id="el4g_GagCXxy3RaPVW6V-1" style="edgeStyle=orthogonalEdgeStyle;rounded=0;orthogonalLoop=1;jettySize=auto;html=1;" edge="1" source="el4g_GagCXxy3RaPVW6V-3" target="el4g_GagCXxy3RaPVW6V-7" parent="vxC3MntsO-3d9teD3gYg-1">
          <mxGeometry relative="1" as="geometry">
            <Array as="points">
              <mxPoint x="360" y="390" />
              <mxPoint x="360" y="390" />
            </Array>
          </mxGeometry>
        </mxCell>
        <mxCell id="el4g_GagCXxy3RaPVW6V-2" style="edgeStyle=orthogonalEdgeStyle;rounded=0;orthogonalLoop=1;jettySize=auto;html=1;exitX=1;exitY=0.5;exitDx=0;exitDy=0;entryX=0;entryY=0.5;entryDx=0;entryDy=0;" edge="1" source="el4g_GagCXxy3RaPVW6V-3" target="el4g_GagCXxy3RaPVW6V-9" parent="vxC3MntsO-3d9teD3gYg-1">
          <mxGeometry relative="1" as="geometry">
            <Array as="points">
              <mxPoint x="350" y="390" />
              <mxPoint x="350" y="500" />
            </Array>
          </mxGeometry>
        </mxCell>
        <mxCell id="el4g_GagCXxy3RaPVW6V-3" value="Usability" style="rounded=1;whiteSpace=wrap;html=1;" vertex="1" parent="vxC3MntsO-3d9teD3gYg-1">
          <mxGeometry x="200" y="360" width="120" height="60" as="geometry" />
        </mxCell>
        <mxCell id="el4g_GagCXxy3RaPVW6V-4" style="edgeStyle=orthogonalEdgeStyle;rounded=0;orthogonalLoop=1;jettySize=auto;html=1;entryX=0;entryY=0.5;entryDx=0;entryDy=0;" edge="1" source="el4g_GagCXxy3RaPVW6V-5" target="el4g_GagCXxy3RaPVW6V-11" parent="vxC3MntsO-3d9teD3gYg-1">
          <mxGeometry relative="1" as="geometry" />
        </mxCell>
        <mxCell id="el4g_GagCXxy3RaPVW6V-5" value="operability" style="rounded=1;whiteSpace=wrap;html=1;" vertex="1" parent="vxC3MntsO-3d9teD3gYg-1">
          <mxGeometry x="390" y="250" width="120" height="60" as="geometry" />
        </mxCell>
        <mxCell id="el4g_GagCXxy3RaPVW6V-6" style="edgeStyle=orthogonalEdgeStyle;rounded=0;orthogonalLoop=1;jettySize=auto;html=1;exitX=1;exitY=0.5;exitDx=0;exitDy=0;" edge="1" source="el4g_GagCXxy3RaPVW6V-7" parent="vxC3MntsO-3d9teD3gYg-1">
          <mxGeometry relative="1" as="geometry">
            <mxPoint x="600" y="390" as="targetPoint" />
          </mxGeometry>
        </mxCell>
        <mxCell id="el4g_GagCXxy3RaPVW6V-7" value="Learnability" style="rounded=1;whiteSpace=wrap;html=1;" vertex="1" parent="vxC3MntsO-3d9teD3gYg-1">
          <mxGeometry x="390" y="360" width="120" height="60" as="geometry" />
        </mxCell>
        <mxCell id="el4g_GagCXxy3RaPVW6V-8" style="edgeStyle=orthogonalEdgeStyle;rounded=0;orthogonalLoop=1;jettySize=auto;html=1;entryX=0;entryY=0.5;entryDx=0;entryDy=0;" edge="1" source="el4g_GagCXxy3RaPVW6V-9" target="el4g_GagCXxy3RaPVW6V-10" parent="vxC3MntsO-3d9teD3gYg-1">
          <mxGeometry relative="1" as="geometry" />
        </mxCell>
        <mxCell id="el4g_GagCXxy3RaPVW6V-9" value="user interface asthetics" style="rounded=1;whiteSpace=wrap;html=1;" vertex="1" parent="vxC3MntsO-3d9teD3gYg-1">
          <mxGeometry x="390" y="470" width="120" height="60" as="geometry" />
        </mxCell>
        <mxCell id="el4g_GagCXxy3RaPVW6V-10" value="User survey" style="rounded=1;whiteSpace=wrap;html=1;" vertex="1" parent="vxC3MntsO-3d9teD3gYg-1">
          <mxGeometry x="610" y="470" width="120" height="60" as="geometry" />
        </mxCell>
        <mxCell id="el4g_GagCXxy3RaPVW6V-11" value="Error tolerance survey" style="rounded=1;whiteSpace=wrap;html=1;" vertex="1" parent="vxC3MntsO-3d9teD3gYg-1">
          <mxGeometry x="610" y="250" width="120" height="60" as="geometry" />
        </mxCell>
        <mxCell id="el4g_GagCXxy3RaPVW6V-12" value="Average learning time" style="rounded=1;whiteSpace=wrap;html=1;" vertex="1" parent="vxC3MntsO-3d9teD3gYg-1">
          <mxGeometry x="610" y="360" width="120" height="60" as="geometry" />
        </mxCell>
        <mxCell id="el4g_GagCXxy3RaPVW6V-15" style="edgeStyle=orthogonalEdgeStyle;rounded=0;orthogonalLoop=1;jettySize=auto;html=1;entryX=0;entryY=0.5;entryDx=0;entryDy=0;" edge="1" parent="vxC3MntsO-3d9teD3gYg-1" source="el4g_GagCXxy3RaPVW6V-13" target="el4g_GagCXxy3RaPVW6V-14">
          <mxGeometry relative="1" as="geometry" />
        </mxCell>
        <mxCell id="el4g_GagCXxy3RaPVW6V-16" style="edgeStyle=orthogonalEdgeStyle;rounded=0;orthogonalLoop=1;jettySize=auto;html=1;" edge="1" parent="vxC3MntsO-3d9teD3gYg-1" target="el4g_GagCXxy3RaPVW6V-13">
          <mxGeometry relative="1" as="geometry">
            <mxPoint x="350" y="490" as="sourcePoint" />
            <Array as="points">
              <mxPoint x="350" y="600" />
            </Array>
          </mxGeometry>
        </mxCell>
        <mxCell id="el4g_GagCXxy3RaPVW6V-13" value="user error protection" style="rounded=1;whiteSpace=wrap;html=1;" vertex="1" parent="vxC3MntsO-3d9teD3gYg-1">
          <mxGeometry x="380" y="570" width="120" height="60" as="geometry" />
        </mxCell>
        <mxCell id="el4g_GagCXxy3RaPVW6V-14" value="Usability study" style="rounded=1;whiteSpace=wrap;html=1;" vertex="1" parent="vxC3MntsO-3d9teD3gYg-1">
          <mxGeometry x="610" y="570" width="120" height="60" as="geometry" />
        </mxCell>
      </root>
    </mxGraphModel>
  </diagram>
  <diagram id="P2r-Rcwhzh6Bz3FmMYfX" name="Page-3">
    <mxGraphModel dx="1422" dy="794" grid="1" gridSize="10" guides="1" tooltips="1" connect="1" arrows="1" fold="1" page="1" pageScale="1" pageWidth="1100" pageHeight="850" math="0" shadow="0">
      <root>
        <mxCell id="Y6Ozc33cqCR87LpAZjgi-0" />
        <mxCell id="Y6Ozc33cqCR87LpAZjgi-1" parent="Y6Ozc33cqCR87LpAZjgi-0" />
        <mxCell id="1zRipeo04ZNXflHodxW8-3" style="edgeStyle=orthogonalEdgeStyle;rounded=0;orthogonalLoop=1;jettySize=auto;html=1;entryX=0;entryY=0.5;entryDx=0;entryDy=0;" edge="1" parent="Y6Ozc33cqCR87LpAZjgi-1" source="aPJH9OSshXCWPAVRwdwy-3" target="aPJH9OSshXCWPAVRwdwy-5">
          <mxGeometry relative="1" as="geometry" />
        </mxCell>
        <mxCell id="aPJH9OSshXCWPAVRwdwy-3" value="Portability" style="rounded=1;whiteSpace=wrap;html=1;" vertex="1" parent="Y6Ozc33cqCR87LpAZjgi-1">
          <mxGeometry x="170" y="410" width="120" height="60" as="geometry" />
        </mxCell>
        <mxCell id="aPJH9OSshXCWPAVRwdwy-4" style="edgeStyle=orthogonalEdgeStyle;rounded=0;orthogonalLoop=1;jettySize=auto;html=1;entryX=0;entryY=0.5;entryDx=0;entryDy=0;" edge="1" source="aPJH9OSshXCWPAVRwdwy-5" target="aPJH9OSshXCWPAVRwdwy-11" parent="Y6Ozc33cqCR87LpAZjgi-1">
          <mxGeometry relative="1" as="geometry">
            <Array as="points">
              <mxPoint x="580" y="440" />
              <mxPoint x="580" y="350" />
            </Array>
          </mxGeometry>
        </mxCell>
        <mxCell id="1zRipeo04ZNXflHodxW8-5" style="edgeStyle=orthogonalEdgeStyle;rounded=0;orthogonalLoop=1;jettySize=auto;html=1;entryX=0;entryY=0.25;entryDx=0;entryDy=0;" edge="1" parent="Y6Ozc33cqCR87LpAZjgi-1" source="aPJH9OSshXCWPAVRwdwy-5" target="1zRipeo04ZNXflHodxW8-4">
          <mxGeometry relative="1" as="geometry" />
        </mxCell>
        <mxCell id="aPJH9OSshXCWPAVRwdwy-5" value="instalability" style="rounded=1;whiteSpace=wrap;html=1;" vertex="1" parent="Y6Ozc33cqCR87LpAZjgi-1">
          <mxGeometry x="400" y="410" width="120" height="60" as="geometry" />
        </mxCell>
        <mxCell id="aPJH9OSshXCWPAVRwdwy-11" value="number of&amp;nbsp; actions to install" style="rounded=1;whiteSpace=wrap;html=1;" vertex="1" parent="Y6Ozc33cqCR87LpAZjgi-1">
          <mxGeometry x="640" y="320" width="120" height="60" as="geometry" />
        </mxCell>
        <mxCell id="1zRipeo04ZNXflHodxW8-4" value="installation effort" style="rounded=1;whiteSpace=wrap;html=1;" vertex="1" parent="Y6Ozc33cqCR87LpAZjgi-1">
          <mxGeometry x="640" y="530" width="120" height="60" as="geometry" />
        </mxCell>
        <mxCell id="1zRipeo04ZNXflHodxW8-6" value="https://www.uni-bamberg.de/fileadmin/uni/fakultaeten/wiai_lehrstuehle/praktische_informatik/Dateien/SOCA13-Installability.pdf" style="text;html=1;align=center;verticalAlign=middle;resizable=0;points=[];autosize=1;" vertex="1" parent="Y6Ozc33cqCR87LpAZjgi-1">
          <mxGeometry x="20" y="660" width="680" height="20" as="geometry" />
        </mxCell>
      </root>
    </mxGraphModel>
  </diagram>
  <diagram id="dqlF_9ppG_Q_3NOaSl59" name="Page-4">
    <mxGraphModel dx="1422" dy="794" grid="1" gridSize="10" guides="1" tooltips="1" connect="1" arrows="1" fold="1" page="1" pageScale="1" pageWidth="1100" pageHeight="850" math="0" shadow="0">
      <root>
        <mxCell id="E-IyYVwnnmJI1cFYSn5p-0" />
        <mxCell id="E-IyYVwnnmJI1cFYSn5p-1" parent="E-IyYVwnnmJI1cFYSn5p-0" />
        <mxCell id="jjB84-DiH9QqzG82WGTD-0" style="edgeStyle=orthogonalEdgeStyle;rounded=0;orthogonalLoop=1;jettySize=auto;html=1;entryX=0;entryY=0.5;entryDx=0;entryDy=0;" edge="1" source="jjB84-DiH9QqzG82WGTD-1" target="jjB84-DiH9QqzG82WGTD-4" parent="E-IyYVwnnmJI1cFYSn5p-1">
          <mxGeometry relative="1" as="geometry" />
        </mxCell>
        <mxCell id="jjB84-DiH9QqzG82WGTD-14" style="edgeStyle=orthogonalEdgeStyle;rounded=0;orthogonalLoop=1;jettySize=auto;html=1;exitX=1;exitY=0.5;exitDx=0;exitDy=0;entryX=0;entryY=0.5;entryDx=0;entryDy=0;" edge="1" parent="E-IyYVwnnmJI1cFYSn5p-1" source="jjB84-DiH9QqzG82WGTD-1" target="jjB84-DiH9QqzG82WGTD-7">
          <mxGeometry relative="1" as="geometry" />
        </mxCell>
        <mxCell id="jjB84-DiH9QqzG82WGTD-1" value="Maintainability" style="rounded=1;whiteSpace=wrap;html=1;" vertex="1" parent="E-IyYVwnnmJI1cFYSn5p-1">
          <mxGeometry x="260" y="390" width="120" height="60" as="geometry" />
        </mxCell>
        <mxCell id="jjB84-DiH9QqzG82WGTD-13" style="edgeStyle=orthogonalEdgeStyle;rounded=0;orthogonalLoop=1;jettySize=auto;html=1;entryX=0;entryY=0.5;entryDx=0;entryDy=0;" edge="1" parent="E-IyYVwnnmJI1cFYSn5p-1" source="jjB84-DiH9QqzG82WGTD-4" target="jjB84-DiH9QqzG82WGTD-11">
          <mxGeometry relative="1" as="geometry" />
        </mxCell>
        <mxCell id="jjB84-DiH9QqzG82WGTD-16" style="edgeStyle=orthogonalEdgeStyle;rounded=0;orthogonalLoop=1;jettySize=auto;html=1;entryX=-0.008;entryY=0.383;entryDx=0;entryDy=0;entryPerimeter=0;" edge="1" parent="E-IyYVwnnmJI1cFYSn5p-1" source="jjB84-DiH9QqzG82WGTD-4" target="jjB84-DiH9QqzG82WGTD-12">
          <mxGeometry relative="1" as="geometry" />
        </mxCell>
        <mxCell id="jjB84-DiH9QqzG82WGTD-4" value="Testability " style="rounded=1;whiteSpace=wrap;html=1;" vertex="1" parent="E-IyYVwnnmJI1cFYSn5p-1">
          <mxGeometry x="460" y="400" width="120" height="60" as="geometry" />
        </mxCell>
        <mxCell id="jjB84-DiH9QqzG82WGTD-9" style="edgeStyle=orthogonalEdgeStyle;rounded=0;orthogonalLoop=1;jettySize=auto;html=1;entryX=0;entryY=0.5;entryDx=0;entryDy=0;" edge="1" parent="E-IyYVwnnmJI1cFYSn5p-1" source="jjB84-DiH9QqzG82WGTD-7" target="jjB84-DiH9QqzG82WGTD-8">
          <mxGeometry relative="1" as="geometry" />
        </mxCell>
        <mxCell id="jjB84-DiH9QqzG82WGTD-15" style="edgeStyle=orthogonalEdgeStyle;rounded=0;orthogonalLoop=1;jettySize=auto;html=1;entryX=0;entryY=0.25;entryDx=0;entryDy=0;" edge="1" parent="E-IyYVwnnmJI1cFYSn5p-1" source="jjB84-DiH9QqzG82WGTD-7" target="jjB84-DiH9QqzG82WGTD-11">
          <mxGeometry relative="1" as="geometry" />
        </mxCell>
        <mxCell id="jjB84-DiH9QqzG82WGTD-18" style="edgeStyle=orthogonalEdgeStyle;rounded=0;orthogonalLoop=1;jettySize=auto;html=1;exitX=1;exitY=0.5;exitDx=0;exitDy=0;entryX=0;entryY=0.25;entryDx=0;entryDy=0;" edge="1" parent="E-IyYVwnnmJI1cFYSn5p-1" source="jjB84-DiH9QqzG82WGTD-7" target="jjB84-DiH9QqzG82WGTD-17">
          <mxGeometry relative="1" as="geometry" />
        </mxCell>
        <mxCell id="jjB84-DiH9QqzG82WGTD-7" value="Correctability&amp;nbsp;" style="rounded=1;whiteSpace=wrap;html=1;" vertex="1" parent="E-IyYVwnnmJI1cFYSn5p-1">
          <mxGeometry x="460" y="280" width="120" height="60" as="geometry" />
        </mxCell>
        <mxCell id="jjB84-DiH9QqzG82WGTD-8" value="Number of Change requests" style="rounded=1;whiteSpace=wrap;html=1;" vertex="1" parent="E-IyYVwnnmJI1cFYSn5p-1">
          <mxGeometry x="650" y="280" width="120" height="60" as="geometry" />
        </mxCell>
        <mxCell id="jjB84-DiH9QqzG82WGTD-11" value="Number of bugs found" style="rounded=1;whiteSpace=wrap;html=1;" vertex="1" parent="E-IyYVwnnmJI1cFYSn5p-1">
          <mxGeometry x="660" y="400" width="120" height="60" as="geometry" />
        </mxCell>
        <mxCell id="jjB84-DiH9QqzG82WGTD-12" value="Test times" style="rounded=1;whiteSpace=wrap;html=1;" vertex="1" parent="E-IyYVwnnmJI1cFYSn5p-1">
          <mxGeometry x="660" y="500" width="120" height="60" as="geometry" />
        </mxCell>
        <mxCell id="jjB84-DiH9QqzG82WGTD-17" value="Rework turnaround times" style="rounded=1;whiteSpace=wrap;html=1;" vertex="1" parent="E-IyYVwnnmJI1cFYSn5p-1">
          <mxGeometry x="660" y="180" width="120" height="60" as="geometry" />
        </mxCell>
      </root>
    </mxGraphModel>
  </diagram>
</mxfile>
